<?xml version="1.0" standalone="no"?>
<!DOCTYPE svg PUBLIC "-//W3C//DTD SVG 20010904//EN"
 "http://www.w3.org/TR/2001/REC-SVG-20010904/DTD/svg10.dtd">
<svg version="1.0" xmlns="http://www.w3.org/2000/svg"
 width="927.000000pt" height="927.000000pt" viewBox="0 0 927.000000 927.000000"
 preserveAspectRatio="xMidYMid meet">
<metadata>
Created by potrace 1.11, written by Peter Selinger 2001-2013
</metadata>
<g transform="translate(0.000000,927.000000) scale(0.100000,-0.100000)"
fill="#000000" stroke="none">
<path d="M428 8135 c-147 -40 -243 -153 -276 -325 -4 -19 -7 -1207 -7 -2640 0
-2491 1 -2607 18 -2655 49 -135 118 -199 253 -235 58 -16 192 -17 1711 -18
917 0 1647 -4 1646 -8 0 -5 -4 -45 -7 -89 -3 -44 -8 -93 -10 -110 -2 -16 -7
-62 -10 -102 -6 -67 -10 -102 -21 -178 -2 -16 -7 -57 -10 -90 -4 -33 -8 -71
-10 -84 -3 -13 -7 -43 -11 -67 -8 -53 -43 -96 -169 -204 -89 -75 -95 -83 -95
-118 1 -42 27 -68 76 -76 16 -2 29 -5 29 -6 0 -1 38 -3 85 -4 47 0 90 -5 97
-9 6 -4 14 -3 17 2 7 10 25 9 43 -2 6 -4 14 -3 17 2 7 10 25 9 43 -2 6 -4 14
-1 17 5 5 10 7 10 12 0 5 -10 9 -10 20 -1 11 9 14 8 14 -2 0 -11 2 -11 10 1 8
12 11 13 19 1 6 -9 11 -10 15 -2 4 6 12 11 17 11 6 0 8 -3 6 -7 -3 -5 32 -8
78 -8 46 0 81 3 79 6 -2 4 12 3 31 -1 20 -4 35 -4 35 1 0 5 5 9 11 9 5 0 8 -4
5 -8 -6 -10 65 -9 81 1 6 4 14 3 18 -3 3 -5 11 -10 16 -10 6 0 7 6 3 13 -6 9
-5 9 7 0 12 -10 18 -10 29 0 7 6 10 7 7 1 -8 -14 665 -13 675 1 5 6 8 5 8 -4
0 -10 3 -11 14 -2 10 8 16 9 21 1 4 -7 13 -7 27 1 12 6 18 7 14 1 -3 -6 5 -9
19 -8 14 0 25 3 25 6 0 3 11 5 24 5 13 0 22 -3 19 -7 -2 -5 1 -8 6 -8 6 0 11
3 11 8 0 4 11 7 24 7 13 0 22 -3 19 -8 -2 -4 0 -7 6 -7 5 0 12 6 15 13 5 9 7
9 12 -1 5 -10 9 -10 20 -1 11 9 14 8 14 -2 0 -11 2 -11 10 1 8 12 11 13 19 1
6 -10 10 -10 16 -1 6 9 10 9 16 -1 6 -9 9 -10 9 -2 0 12 47 12 66 0 6 -3 14
-3 18 0 4 4 55 8 114 9 176 2 212 17 212 89 0 45 0 45 -110 134 -89 72 -137
128 -144 168 -3 11 -7 44 -11 74 -4 30 -9 57 -10 60 -2 3 -7 39 -10 80 -4 41
-8 88 -11 104 -9 67 -15 128 -19 178 -2 28 -6 70 -9 92 -17 128 -17 155 1 156
10 0 765 1 1678 3 1529 2 1664 4 1712 19 114 38 195 120 231 236 16 53 17 214
17 2671 l0 2615 -23 68 c-49 147 -136 232 -271 263 -82 20 -8342 19 -8413 -1z"/>
</g>
</svg>
