<?xml version="1.0" standalone="no"?>
<!DOCTYPE svg PUBLIC "-//W3C//DTD SVG 20010904//EN"
 "http://www.w3.org/TR/2001/REC-SVG-20010904/DTD/svg10.dtd">
<svg version="1.0" xmlns="http://www.w3.org/2000/svg"
 width="927.000000pt" height="927.000000pt" viewBox="0 0 927.000000 927.000000"
 preserveAspectRatio="xMidYMid meet">
<metadata>
Created by potrace 1.11, written by Peter Selinger 2001-2013
</metadata>
<g transform="translate(0.000000,927.000000) scale(0.100000,-0.100000)"
fill="#000000" stroke="none">
<path d="M1363 8012 c-6 -4 -43 -7 -82 -7 -39 1 -71 -3 -71 -8 0 -4 -4 -6 -8
-3 -17 10 -113 -45 -157 -90 -47 -48 -75 -99 -79 -145 -2 -14 -5 -30 -8 -35
-3 -5 -5 -577 -5 -1271 l0 -1262 51 3 c28 1 57 -2 64 -7 6 -5 12 -6 12 -1 0 5
18 8 39 8 22 -1 41 3 43 10 3 6 4 597 4 1314 -1 865 2 1302 9 1303 5 1 1726 2
3823 3 l3812 1 0 -45 c0 -25 2 -263 4 -530 2 -267 5 -1358 6 -2425 l3 -1940
-3176 -3 -3177 -2 0 -95 0 -95 2399 0 c2001 0 2400 -2 2404 -13 4 -12 132 -14
739 -12 502 1 743 6 766 13 38 12 106 52 137 79 24 21 75 98 75 113 0 5 4 10
8 10 9 0 10 6 15 120 3 47 6 90 7 95 1 6 1 12 0 15 -6 15 -5 207 2 221 4 9 4
19 1 23 -10 10 -11 198 -1 217 4 9 4 19 1 23 -10 10 -11 198 -1 217 4 9 4 19
1 23 -10 10 -11 198 -1 218 4 9 5 19 0 22 -6 4 -9 156 -2 181 1 6 1 12 0 15
-8 17 -6 69 2 64 6 -4 6 2 -1 14 -10 19 -8 52 4 71 3 5 2 12 -3 15 -7 4 -9
115 -2 141 1 6 1 12 0 15 -8 17 -6 69 2 64 6 -4 6 2 -1 14 -10 19 -8 52 4 71
3 5 2 12 -3 15 -7 4 -9 115 -2 141 1 6 1 12 0 15 -8 17 -6 69 2 64 6 -4 6 2
-1 14 -10 19 -8 52 4 71 3 5 2 12 -3 15 -7 4 -9 115 -2 141 1 6 1 12 0 15 -8
17 -6 69 2 64 6 -4 6 2 -1 14 -10 19 -8 52 4 71 3 5 1 12 -4 15 -7 5 -8 73 -1
101 1 6 1 12 0 15 -6 15 -5 207 2 221 4 9 4 19 1 23 -10 10 -11 198 -1 217 4
9 4 19 1 23 -10 10 -11 198 -1 217 4 9 4 19 1 23 -10 10 -11 198 -1 217 4 9 4
19 1 23 -10 10 -11 198 -1 218 4 9 4 19 -1 22 -5 3 -6 23 -3 43 3 21 7 247 8
503 3 448 -3 560 -28 560 -5 0 -8 6 -8 14 0 40 -134 149 -198 161 -9 2 -17 4
-17 5 0 2 -179 11 -200 10 -31 -1 -213 -1 -230 0 -11 0 -41 -1 -67 -3 -27 -2
-48 1 -48 6 0 6 -5 6 -12 0 -7 -5 -35 -8 -63 -6 -27 2 -54 3 -60 3 -25 -1
-212 -1 -230 0 -11 0 -41 -1 -67 -3 -27 -2 -48 0 -48 5 0 5 -5 6 -12 2 -15
-10 -1409 -11 -1415 -1 -2 4 -12 3 -21 -1 -9 -5 -39 -7 -67 -5 -27 2 -54 3
-60 3 -25 -1 -212 -1 -230 0 -11 0 -41 -1 -67 -3 -27 -2 -48 1 -48 6 0 6 -5 6
-12 0 -7 -5 -35 -8 -63 -6 -27 2 -54 3 -60 3 -25 -1 -212 -1 -230 0 -11 0 -41
-1 -67 -3 -27 -2 -48 1 -48 6 0 6 -5 6 -12 0 -7 -5 -35 -8 -63 -6 -27 2 -54 3
-60 3 -25 -1 -212 -1 -230 0 -11 0 -41 -1 -67 -3 -27 -2 -48 1 -48 6 0 6 -5 6
-12 0 -7 -5 -35 -8 -63 -6 -27 2 -54 3 -60 3 -25 -1 -212 -1 -230 0 -11 0 -41
-1 -67 -3 -27 -2 -48 1 -48 6 0 6 -5 6 -12 0 -7 -5 -35 -8 -63 -6 -27 2 -54 3
-60 3 -25 -1 -212 -1 -230 0 -11 0 -41 -1 -67 -3 -27 -2 -48 0 -48 5 0 5 -5 6
-12 2 -15 -10 -1409 -11 -1415 -1 -2 4 -12 3 -21 -1 -9 -5 -39 -7 -67 -5 -27
2 -54 3 -60 3 -25 -1 -212 -1 -230 0 -11 0 -41 -1 -67 -3 -27 -2 -48 1 -48 6
0 6 -5 6 -12 0 -7 -5 -35 -8 -63 -6 -27 2 -54 3 -60 3 -25 -1 -212 -1 -230 0
-11 0 -41 -1 -67 -3 -27 -2 -48 1 -48 6 0 6 -5 6 -12 0 -13 -10 -99 -10 -115
0 -5 3 -14 3 -20 -1z"/>
<path d="M262 4899 c-18 -18 -35 -41 -37 -53 -3 -11 -4 -812 -3 -1778 l3
-1757 34 -31 35 -30 888 2 888 3 27 28 28 27 3 1763 c2 1293 -1 1769 -9 1789
-6 15 -26 37 -44 48 -32 20 -49 20 -907 20 l-874 0 -32 -31z m211 -96 c-7 -17
-18 -17 -32 1 -10 11 -8 16 6 24 20 12 35 -2 26 -25z m421 16 c-6 -11 -74 -12
-74 -1 0 4 18 7 40 8 22 1 37 -3 34 -7z m120 -1 c-7 -10 -104 -11 -104 0 0 4
24 7 54 7 30 1 52 -3 50 -7z m120 0 c-7 -10 -104 -11 -104 0 0 4 24 7 54 7 30
1 52 -3 50 -7z m120 0 c-7 -10 -104 -11 -104 0 0 4 24 7 54 7 30 1 52 -3 50
-7z m120 0 c-7 -10 -104 -11 -104 0 0 4 24 7 54 7 30 1 52 -3 50 -7z m120 0
c-7 -10 -104 -11 -104 0 0 4 24 7 54 7 30 1 52 -3 50 -7z m36 2 c0 -5 -4 -10
-10 -10 -5 0 -10 5 -10 10 0 6 5 10 10 10 6 0 10 -4 10 -10z m458 -109 l22 -1
0 -1578 0 -1578 -833 0 -832 0 -1 1578 0 1577 26 3 c19 2 1520 1 1618 -1z
m-790 -3303 c18 -18 15 -36 -9 -48 -37 -21 -64 28 -28 51 19 12 23 11 37 -3z"/>
<path d="M4155 2426 c-4 -10 -10 -49 -20 -116 -2 -14 -6 -41 -10 -60 -3 -19
-8 -51 -11 -70 -21 -167 -69 -261 -174 -340 -77 -57 -151 -122 -167 -146 -15
-23 -15 -26 1 -42 15 -16 104 -17 1222 -17 1298 0 1234 -3 1218 48 -8 25 -25
41 -136 130 -94 76 -128 109 -128 127 0 6 -4 10 -9 10 -5 0 -18 24 -29 53 -26
66 -30 81 -37 142 -4 28 -8 57 -10 65 -4 14 -7 28 -21 125 -3 22 -7 49 -9 60
-2 11 -4 25 -4 31 -1 16 -1671 16 -1676 0z"/>
</g>
</svg>
